<?xml version="1.0" encoding="UTF-8"?>
<svg width="32" height="32" version="1.1" viewBox="0 0 32 32" xmlns="http://www.w3.org/2000/svg">
 <path d="m12.894 24.401s-5.1328 7.5642-9.4552 4.8627c-5.2117-3.2573-0.3602-7.3841 1.9811-5.3129 2.3413 2.0711 0.27015 3.602-0.81044 2.8816-1.0806-0.7204-0.90049-1.6209-0.90049-1.6209" fill="none" stroke="#000" stroke-linecap="round" stroke-width="1.1864"/>
 <path d="m24.745 28.075s7.8391-10.895 3.4545-16.608c-4.3846-5.7133-2.7902-11.692-4.2517-9.965-1.4615 1.7273-5.979 4.2517-9.5664 1.4615s-3.8531-3.1888-2.9231 0.93007c0.93007 4.1189-4.3846 6.5105-4.1189 12.888 0.26573 6.3776 4.5175 10.762 4.5175 10.762s0.26573 3.5874 3.1888 3.8531c2.9231 0.26573 1.4615-3.5874 3.5874-3.4545 2.1259 0.13287 0.66433 3.0559 2.9231 3.1888 2.2587 0.13287 3.1888-3.0559 3.1888-3.0559z" fill="#d2b55e" stroke="#000" stroke-linecap="round" stroke-width="1.1864"/>
 <circle cx="13.165" cy="10.444" r="1.6209"/>
 <circle cx="23.16" cy="9.8132" r="1.6209"/>
 <path d="m16.677 12.605s0.3602 1.801 2.1612 1.801 1.5308-2.0711 1.5308-2.0711" fill="none" stroke="#000" stroke-linecap="round" stroke-width="1.1864"/>
 <ellipse cx="18.856" cy="21.698" rx="4.0207" ry="4.5059" fill="#e6d6a6"/>
 <g>
  <path d="m7.6869 17.015s0.69096 1.3819 3.1525 1.5115c2.4615 0.12956 4.2753-0.43185 1.9433 1.0364-2.332 1.4683-4.8799 1.0796-4.8799 1.0796"/>
  <path d="m9.0688 23.061s1.1557 0.55525 2.7206 0.51822c1.565-0.03703 3.0229-0.38866 1.1228 0.82051-1.9001 1.2092-2.5479 1.2092-2.5479 1.2092"/>
  <path d="m29.471 17.323s-0.81909 1.1376-2.8668 1.2672c-2.0477 0.12956-3.5566-0.43185-1.6166 1.0364 1.94 1.4683 3.7542 1.0796 3.7542 1.0796"/>
  <path d="m27.772 23.124s-0.65602 0.55525-1.9579 0.51822c-1.3019-0.03703-2.5148-0.38866-0.93405 0.82051 1.5807 1.2092 1.5089 0.90381 1.5089 0.90381"/>
  <path d="m15.59 4.0594s1.1228 0.77733 1.5978 2.8934c0.47503 2.1161 1.4683 5.8731 1.7274 2.5911 0.25911-3.2821 1.7706-5.6572 1.7706-5.6572"/>
 </g>
</svg>
