<?xml version="1.0" encoding="UTF-8"?>
<!-- Created with Inkscape (http://www.inkscape.org/) -->
<svg width="32" height="32" version="1.1" viewBox="0 0 32 32" xmlns="http://www.w3.org/2000/svg">
 <path d="m12.894 24.401s-5.1328 7.5642-9.4552 4.8627c-5.2117-3.2573-0.3602-7.3841 1.9811-5.3129 2.3413 2.0711 0.27015 3.602-0.81044 2.8816-1.0806-0.7204-0.90049-1.6209-0.90049-1.6209" fill="none" stroke="#000" stroke-linecap="round" stroke-width="1.1864"/>
 <g>
  <path d="m24.745 28.075s7.8391-10.895 3.4545-16.608c-4.3846-5.7133-2.7902-11.692-4.2517-9.965-1.4615 1.7273-5.979 4.2517-9.5664 1.4615-3.5874-2.7902-3.8531-3.1888-2.9231 0.93007 0.93007 4.1189-4.3846 6.5105-4.1189 12.888 0.26573 6.3776 4.5175 10.762 4.5175 10.762s0.26573 3.5874 3.1888 3.8531c2.9231 0.26573 1.4615-3.5874 3.5874-3.4545 2.1259 0.13287 0.66433 3.0559 2.9231 3.1888 2.2587 0.13287 3.1888-3.0559 3.1888-3.0559z" fill="#d2b55e" stroke="#000" stroke-linecap="round" stroke-width="1.1864"/>
  <circle cx="13.165" cy="10.444" r="1.6209"/>
  <circle cx="23.16" cy="9.8132" r="1.6209"/>
 </g>
 <path d="m16.677 12.605s0.3602 1.801 2.1612 1.801c1.801 0 1.5308-2.0711 1.5308-2.0711" fill="none" stroke="#000" stroke-linecap="round" stroke-width="1.1864"/>
 <ellipse cx="18.856" cy="21.698" rx="4.0207" ry="4.5059" fill="#e6d6a6"/>
</svg>
