<?xml version="1.0" encoding="UTF-8"?>
<svg width="200" height="200" version="1.1" viewBox="0 0 52.917 52.917" xmlns="http://www.w3.org/2000/svg">
 <g transform="matrix(.85737 0 0 .85737 3.3067 -251.62)">
  <g stroke-width="1.3604">
   <path d="m34.703 309.06s0.33073 2.3387 0.42522 4.205c0.09449 1.8662 1.1339 7.7721 1.3702 8.5753s1.3465 13.702 5.7405 22.159c4.394 8.4572 5.0554 11.434 5.0554 11.434h2.0316s-0.99219-3.3545-3.3545-7.5595c-2.3624-4.205-5.2917-9.3549-5.2917-9.3549s-2.4601-16.144-3.3956-19.552c-0.93544-3.4077-1.5869-7.8844-1.921-9.4046-0.33409-1.5201-0.46772-1.7038-0.46772-1.7038z" fill="#da4040"/>
   <path d="m20.269 310.64s-0.02362 2.5513-0.25986 6.4492-0.49609 5.5043-0.49609 5.5043l-6.5673 27.663s-1.5828 2.5041-2.9529 4.7247 1.7481 0.0472 1.7481 0.0472 0.89769-1.9608 1.819-3.6144c0.92132-1.6536 7.4414-30.073 7.4414-30.073s-0.04725-3.449-0.11812-5.5515-0.28348-4.4885-0.28348-4.4885z" fill="#da4040"/>
   <path d="m23.954 321.04-0.18899-6.6618-3.4963-3.7325 1.8426-10.205 11.576 0.56696 1.2757 7.5595-1.7954 2.5041-0.42522 12.284-6.8508 5.5279z" fill="#e1bf91"/>
   <path transform="matrix(.26458 0 0 .26458 0 288.53)" d="m112.27 21.312c-2.0453-0.01496-4.3006 0.49277-6.6484 1.7949-7.513 4.1669-3.2832 10.984-3.2832 10.984l-2.7148 0.25391s-7.1356-1.2007-15.406 5.5547c-8.2706 6.7554-14.773 21.151-14.584 27.275 0.1894 6.1241 5.0508 10.637 5.0508 10.637s-0.53627 4.9548 3.0352 13.66c3.5714 8.7053 9.8672 10.982 9.8672 10.982s-2.9461-3.0363-5.2676-6.9648c-2.3214-3.9286-2.5449-7.3652-2.5449-7.3652s1.6959 3.7045 3.9727 6.1152 4.7324 3.125 4.7324 3.125 0.71372 4.9562-0.08984 10.76c-0.70141 5.0658-3.9317 11.26-4.7422 12.754l9.9785-5.2168 3.9141-1.957s0.37827-0.56876 0.44141-4.6094c0.06316-4.0406-1.1992-7.8906-1.1992-7.8906s-3.7241-2.5892-6.6914-4.9883-3.095-2.4624-5.4941-7.9551-3.1562-8.8379-3.1562-8.8379-0.12661-9.1554 1.1992-13.512c1.3258-4.3563 5.6191-12.5 5.6191-12.5s2.7776-0.44208 3.9141-0.56836c1.1364-0.12624 1.5781 0.31641 1.5781 0.31641s-0.53596-1.1058 0.12695-1.0742c0.66291 0.03024 1.1055 1.2305 1.1055 1.2305s0.2527-0.78906 0.56836-0.78906c0.31567 0 0.44141 0.75781 0.44141 0.75781s0.28362-0.75679 0.63086-0.66211c0.34722 0.09487 0.41016 0.66211 0.41016 0.66211s0.25348-0.56836 1.0742-0.56836c0.82075 0 0.94727 0.50586 0.94727 0.50586s0.9466-1.6094 2.1777-1.7988c1.2311-0.18935-0.12696 0.69336-0.12695 0.69336 0 0 4.3253-0.9787 5.9668 0.78906s7.8294 8.4598 10.039 16.73c2.2097 8.2706 3.7872 15.468 3.9766 17.109 0.18939 1.6415-0.75734 4.4826-1.3887 5.2402-0.63135 0.75761-1.8945 1.8945-1.8945 1.8945s0.12643 3.2835 0.56836 9.4707c0.44194 6.1872 1.2207 11.783 1.2207 11.783l10.877 7.7598 2.5508 0.0918s-1.3905-4.3563-3.3477-14.773c-1.9572-10.417-2.5879-23.738-2.5879-23.738s4.5461-4.483 6.377-9.4707c1.8309-4.9876 2.8406-15.721-1.5156-25.002s-12.438-11.363-12.438-11.363 0.82145-0.25327 2.6524-2.8418c1.8309-2.5885 1.0725-6.5659-0.69532-9.7227-1.2153-2.1702-4.6976-4.7288-9.1973-4.7617z" fill="#865d24"/>
   <path d="m24.388 319.54s0.53446 1.5027 1.125 2.8728c0.59059 1.3702 1.4883 3.0002 1.4883 3.0002s1.252-1.7718 2.4332-3.5672 2.2442-3.4726 2.2442-3.4726l0.94494 1.7481-5.8114 8.8352-4.1105-8.4336z" fill="#41abbd"/>
   <path d="m40.113 341.19s1.6536 4.4648 2.2206 7.0634 0.7087 7.3233 0.7087 7.3233l-3.5908 0.0472-3.3545-14.387z" fill="#865d24"/>
   <path d="m22.702 320.52 4.1105 8.4336 5.835-6.78 5.3046 19.547s2.1382 6.3476 4.2095 13.898-30.135 1.7372-30.135 1.7372 0.39884-0.88068 0.94218-2.1091c0.54334-1.2284 0.7087-2.0789 0.7087-2.0789s-2.6866-6.0685-3.5552-8.4405c-0.86863-2.372-0.66817-3.4745-0.66817-3.4745s1.6704-2.205 2.2718-4.2429c0.60136-2.0379 10.976-16.49 10.976-16.49z" fill="#d2f4f9"/>
   <path d="m23.836 320.54s0.63784 2.0316 1.4883 3.7798c0.85045 1.7481 1.7009 3.0947 1.7009 3.0947s1.9135-3.1183 2.9529-4.7247 1.9608-3.449 1.9608-3.449l1.1812 2.3151-1.9371 3.4018s-1.8663 2.6458-4.2522 6.1894c-2.386 3.5435-3.9451 4.8428-3.9451 4.8428l-0.49609-2.9293s0.44885-0.0945 1.5592-1.4647 1.6843-2.3488 1.6843-2.3488-0.47607-0.55959-1.6454-2.6309-1.5702-3.3409-1.5702-3.3409z" fill="#fff"/>
  </g>
  <ellipse transform="rotate(-4.1858)" cx=".0024173" cy="340.61" rx="1.1457" ry="1.2293" fill="none" stroke="#d8bb14" stroke-linecap="round" stroke-linejoin="round" stroke-width="1.2344" style="paint-order:markers fill stroke"/>
  <g stroke-width="1.3604">
   <path d="m25.337 318.86-0.1546-0.29661s-3.1663 1.7462-5.5384 3.0157c-2.372 1.2695-4.3765 2.2384-4.5436 2.4054-0.16704 0.16704-1.3865 2.5224-2.205 3.9255-0.81851 1.4032-1.6203 2.823-2.7061 3.9589s-2.7896 2.5391-2.7896 2.5391 2.1215 2.0045 2.8564 2.8397 3.0903 1.8208 4.9111 2.8732 3.675 1.4199 5.2285 1.4032 3.1237-0.83521 3.6583-1.186c0.53454-0.35079 0.61806-0.66817 0.61806-0.66817s-1.0524-1.9544-1.5535-4.3932-0.62923-9.201 0.26846-12.201c0.89769-3.0002 1.712-4.0814 1.712-4.0814z" fill="#40372b"/>
   <path d="m21.332 345.47s0.99219 0.18899 2.008 0.21261c1.0158 0.0236 1.5828-0.0945 1.5828-0.0945s1.7481 0.47247 3.827 0.37798c2.0789-0.0945 6.0476-0.54334 6.0476-0.54334l0.02363 4.9846 2.4096 6.78h-8.8352s0.35435-1.9608 0.37798-2.7876c0.02363-0.82682 0.49609-5.3625 0.49609-5.3625s-0.73233-0.63783-1.0394-0.68508c-0.30711-0.0472-2.8584-0.54334-4.6775-1.5592-1.819-1.0158-2.2206-1.3229-2.2206-1.3229z" fill="#fff"/>
   <path transform="matrix(.26458 0 0 .26458 0 288.53)" d="m94.174 194.68c-0.66964 0-1.0039 0.73633-1.0039 0.73633s-2.1875 1.5911-3.75 8.1089-1.2056 11.384-0.98242 13.438c0.06871 0.6321 0.04709 1.6997-0.01367 2.875 0.21922 0.12326 0.35932 0.20698 0.59375 0.33789 1.2208 0.68177 2.5308 1.2999 3.8633 1.8594-0.22315-1.5564-0.5127-3.475-0.87109-5.6074-0.89286-5.3125-0.26953-11.34-0.26953-11.34s-0.08844 4.9992 0.44727 8.3027c0.53571 3.3036 1.7402 4.5996 1.7402 4.5996l3.5723-0.0449s0.85032 3.2054 1.7637 6.334c2.1065 0.62186 3.9677 1.0736 5.3262 1.3711-0.31128-0.57298-0.66314-1.1621-1.0625-1.7676-4.1518-6.2947-5.4473-10.76-5.4473-10.76l2.4551-0.0898s-2.0087-8.4821-3.0801-12.5-2.4551-5.4742-2.4551-5.4742-0.15652-0.3789-0.82617-0.3789z" fill="#da4040"/>
   <path d="m31.679 318.37s1.2993 1.0867 2.6458 1.441c1.3465 0.35435 3.7798 0.99219 3.9451 1.1339 0.16536 0.14174 1.7245 1.9608 2.5513 3.7561 0.82682 1.7954 1.8426 4.9373 3.2128 7.7721s3.7089 3.4963 3.7089 3.4963-0.51972 2.0552-2.575 3.1892c-2.0552 1.1339-3.4727 1.8662-5.9767 2.9766-2.5041 1.1103-5.835 2.2206-8.8116 0.89769-2.9766-1.3229-5.2208-3.3604-5.2208-3.3604s-0.1128-0.0225 0.90617-1.8099c1.019-1.7874 3.9024-8.5371 4.9046-12.513 1.0023-3.9756 0.70927-6.9799 0.70927-6.9799z" fill="#40372b"/>
   <path d="m36.031 350.29s4.4338 4.5968 6.5985 6.4638c2.1647 1.8669-2.8699 0.97328-2.8699 0.97328l-5.7373-7.4061z" fill="#6f5225"/>
   <path d="m33.81 348.64 0.56795-1.8709 1.9711-1.5869 0.0167 2.6226-1.1309 1.3922 1.5946-0.59649 2.6931 0.88588-2.4568 1.5592-2.2442-0.63783 1.5592 3.3309-0.87407 1.9371-1.819-1.7954 0.02363-1.3938-1.3465 1.6536-1.9371 0.35436 0.11812-2.008 2.8348-2.5277z" fill="#4baf3e"/>
   <path d="m31.467 345.51s-0.51972 0.23624-1.2048 0.75595c-0.68508 0.51972-0.33073 1.0631-0.33073 1.0631l3.5435 3.1892s0.8032 0.42522 1.2757-0.14175c0.47247-0.56696 0.14174-1.1339 0.14174-1.1339z" fill="#6f5225"/>
   <path d="m29.391 349.24c0.05429 0.0543 0.72868-7e-3 0.89405 0.0873 0.16536 0.0945 0.93313 0.44885 1.7718 0.66146 0.83863 0.21261 0.98037 0.55515 0.69689 0.68508s-0.55515 0.21261-0.55515 0.21261 0.95675 0.0709 0.54334 0.44885c-0.41341 0.37797-0.64965 0.35435-1.0394 0.35435s-0.62602 0.0118-0.62602 0.0118 0.72052 0.12993 0.55515 0.43113c-0.16536 0.3012-0.31892 0.21852-0.56106 0.23033-0.24214 0.0118-0.38388 0.0177-0.38388 0.0177s0.66737 0.0591 0.12993 0.38389c-0.53743 0.32482-1.6536 0.16536-1.8426 0.28348-0.18899 0.11812-0.9095 0.56696-1.1339 0.69689-0.22442 0.12993-0.35435 0.15355-0.35435 0.15355s0.55515-3.3545 0.8032-3.9333c0.24805-0.57878 0.89542-0.84416 0.89542-0.84416s0.15243 0.0647 0.20672 0.11905z" fill="#e1bf91"/>
   <path d="m21.666 307.03s0.58465 0.20045 1.4032 0.20045 1.8208 0.26727 1.8208 0.26727-0.91874-0.83522-1.1359-0.86862-2.3219 0.35079-2.3219 0.35079z" fill="#865d24"/>
   <path d="m27.061 307.24s0.28397-0.56795 0.85192-0.80181 3.2239-0.11693 3.2239-0.11693 0.10023 0.21715-0.53454 0.18375-1.0023 0.26727-2.0713 0.36749c-1.0691 0.10023-1.47 0.3675-1.47 0.3675z" fill="#865d24"/>
  </g>
  <path d="m21.883 308.88s0.48443-0.56795 1.2862-0.68488c0.80181-0.11693 1.6704 0.78511 1.6704 0.78511" fill="none" stroke="#473113" stroke-width=".3086px"/>
  <path d="m27.729 308.65s0.26727-0.53454 1.3698-0.83522c1.1025-0.30067 1.5368 0.46773 1.5368 0.46773" fill="none" stroke="#473113" stroke-width=".3086px"/>
  <path d="m23.536 308.29s-0.13364 1.0357 0.28397 0.96885c0.41761-0.0668 0.23386-0.90203 0.23386-0.90203" fill="#473113" stroke-width="1.3604"/>
  <path d="m29.333 307.78s-0.11693 0.91873 0.28397 0.86862c0.4009-0.0501 0.25057-0.85192 0.25057-0.85192" fill="#473113" stroke-width="1.3604"/>
  <path d="m25.561 313.75s0.31892-0.17718 0.7087-0.2008c0.38979-0.0236 0.62602 0.13583 0.78548 0.15946 0.15946 0.0236 0.38388 0.0354 0.38388 0.0354" fill="none" stroke="#473113" stroke-linecap="round" stroke-width=".3086"/>
  <g stroke-width="1.3604">
   <path d="m33.442 306.51c0.13363-0.21716 0.27562-0.29233 0.27562-0.29233s0.53454 0.49278 0.50113 1.5535c-0.03341 1.0607-0.85192 2.0296-0.85192 2.0296s0.03341-0.79345 0.01669-1.6704c-0.01669-0.87698-0.14198-1.2194-0.14198-1.2194s0.06683-0.18375 0.20046-0.4009z" fill="#e1bf91"/>
   <ellipse transform="rotate(-45.104)" cx="-223.76" cy="267.97" rx=".63783" ry=".95675" fill="#cf984b" style="paint-order:markers fill stroke"/>
   <ellipse transform="rotate(-45.104)" cx="-223.69" cy="270.29" rx=".5545" ry=".83175" fill="#cf984b" style="paint-order:markers fill stroke"/>
  </g>
  <path d="m8.1821 333.98s1.4396 1.2547 2.208 2.3238 3.5747 1.9377 4.6772 2.7395c1.1025 0.80181 3.842 1.6704 5.2452 1.7372s3.3743-1.1025 3.3743-1.1025" fill="none" stroke="#939393" stroke-width=".3086"/>
  <path d="m25.992 339.58s4.1093 3.0402 6.6483 3.3075c2.5391 0.26727 5.8131-1.3029 8.3522-2.4722s4.057-2.086 4.6586-2.7331c0.60167-0.64706 1.2783-1.7916 1.2783-1.7916" fill="none" stroke="#939393" stroke-width=".3086"/>
 </g>
</svg>
