<?xml version="1.0" encoding="UTF-8"?>
<svg width="100" height="100" version="1.1" viewBox="0 0 26.458 26.458" xmlns="http://www.w3.org/2000/svg">
 <g transform="translate(0 -288.53)">
  <g>
   <g stroke="#000" stroke-width=".26458px">
    <path d="m18.479 302.06s0.01766 0.22967-0.07067 0.75969c-0.08834 0.53001-0.88337 2.4204-2.3144 2.5794-1.4311 0.159-3.0211-0.96067-3.0211-0.96067l0.86575-2.0599s1.1041 0.22036 1.7313 0.0967c0.62719-0.12367 0.97505-0.43514 0.97505-0.43514" fill="#7f7f7f"/>
    <path d="m12.504 306.47 1.0004-0.16938 0.10314 1.7497-1.0986 0.0968z" fill="#815600"/>
    <path d="m15.97 295.65s0.91871 7.9149 0.98938 10.671c0.07067 2.7561 0.18583 8.2896 0.18583 8.2896l1.1493-0.0499s0-6.2962-0.24986-10.244c-0.24986-3.9476-1.0494-12.942-1.0494-12.942l4.9471-0.4997-0.19988-1.2992-11.943 1.2992 0.14991 1.3992 5.7966-0.69958z" fill="#b4884d"/>
    <path d="m11.457 290.7s0.04239 1.9791 0.49213 2.6287c0.44974 0.64961 0.44797 1.8552 4.0218 2.3268 3.5738 0.47155 5.9224 1.2211 5.4727 2.6203-0.44974 1.3992-2.8983 1.649-1.1493 2.8983s2.1488 1.3492 2.1488 1.3492h2.4986s-2.3486-1.749-2.3486-2.5984c0-0.8495 0.19988-1.0494 0.19988-1.0494s3.498-1.1493 2.8983-2.4735c-0.90978-2.5134-4.276-2.7286-4.7972-4.0976-0.45733-1.2719-0.36852-2.5908-0.36852-2.5908l-2.5316 0.2754s1.135 1.6241-0.94321 2.0073c-2.0782 0.38311-2.3018-1.6542-2.3018-1.6542z" fill="#1388b4"/>
    <path d="m3.3536 314.46s2.8483 0.0499 3.0482-0.19988c0.19988-0.24986 0.099942-1.8489 0.94945-2.7983 0.84951-0.94944 1.2493-1.3492 1.2493-1.3492l1.1993-0.9994 0.3498 1.0494s0.29983 1.4491 0.3498 1.9488c0.04997 0.4997 0.04997 1.8489 0.04997 1.8489s0.84951 0.1 1.8989 0.14991c1.0494 0.0499 1.4492 0.0499 1.4492 0.0499l-0.59965-0.74955s0.04997-3.348-0.09994-4.5473c-0.14991-1.1993-0.44974-1.7989-0.44974-1.7989l-3.448 0.69958-4.4474-0.24985s-0.74957 2.3486-0.94945 3.398c-0.19988 1.0494-0.19988 2.8983-0.19988 2.8983z" fill="#b4b4b4"/>
   </g>
   <path d="m11.201 299.2-1.5312 1.3587 1.6367 1.1682 1.8421-0.82096z" fill="#616161"/>
   <g stroke="#000">
    <g stroke-width=".26458px">
     <path d="m7.5495 300.54 0.051696-2.9698s0.12493-0.37477 1.5241-0.4997c1.3992-0.12493 2.0988 0.075 2.0988 0.075l-0.03994 3.5154-1.759 1.7565z" fill="#b4b4b4"/>
     <path d="m4.8153 307.22-2.0863-3.6727 2.5985-2.8733s1.1993-0.1749 3.8228-0.12492c2.6235 0.0499 4.9221 0.52468 4.9221 0.52468s-0.22487 2.6234-0.54968 3.9726c-0.32481 1.3492-0.79954 1.7489-0.79954 1.7489l-3.9477 1.724z" fill="#b4b4b4"/>
     <path d="m12.498 301.25s-2.6485 3.1481-4.2475 4.2974c-1.5991 1.1493-2.3986 1.5241-2.3986 1.5241l0.62464 0.62462s2.2637-1.4991 3.6129-2.6484c1.3492-1.1493 3.1832-3.2231 3.1832-3.2231" fill="#7f1a1a"/>
     <path d="m4.8893 301.72s3.518 2.1328 4.8996 3.536c1.3816 1.4033 1.8749 2.1356 1.8749 2.1356l0.52113-0.71326s-1.8294-2.0062-3.1726-3.1626c-1.3432-1.1564-3.6743-2.6496-3.6743-2.6496" fill="#7f1a1a"/>
     <path d="m4.6379 308.21s1.2643-0.49096 2.6135 0.70834l1.3492 1.1993s0.94945 0.39976 1.5491 0.0499c0.59965-0.34979 2.7312-2.7591 2.7312-2.7591l-0.15773-0.61385s-1.1166-0.11589-3.166-0.0806c-2.0494 0.0353-4.7419 0.50531-4.7419 0.50531z" fill="#8e8e8e"/>
    </g>
    <ellipse transform="matrix(.99561 .093551 -.093554 .99561 0 0)" cx="33.552" cy="309.6" rx=".96194" ry=".66212" fill="#b4b4b4" stroke-width=".26458" style="paint-order:markers fill stroke"/>
    <ellipse transform="matrix(.99767 -.068264 .068267 .99767 0 0)" cx="-8.6579" cy="311.07" rx=".96194" ry=".66212" fill="#b4b4b4" stroke-width=".26458" style="paint-order:markers fill stroke"/>
   </g>
  </g>
  <g fill="#7f7f7f" stroke="#000">
   <path d="m1.7836 303.65s-0.50371 1.8165-0.60365 3.4906c-0.099942 1.674 0.19988 2.7484 0.57467 2.7983 0.37478 0.05 1.8364 0.1624 1.8739-0.23735 0.037478-0.39977-0.16241-0.53719-0.16241-0.53719s0.24986-0.12493 0.27484-0.37477c0.024987-0.24986-0.61215-0.48721-0.61215-0.48721l2.2942-5.5319z" stroke-width=".26458px"/>
   <ellipse cx="1.6775" cy="307.49" rx=".7676" ry=".52066" stroke-width=".26458" style="paint-order:markers fill stroke"/>
   <ellipse cx="9.4501" cy="306.74" rx=".56771" ry=".54565" stroke-width=".26458" style="paint-order:markers fill stroke"/>
  </g>
  <g>
   <g stroke="#000">
    <g stroke-width=".26458px">
     <path d="m1.1299 304.99s0.59987 0.0685 2.3798-0.4638c1.7799-0.53238 3.4918-1.3662 3.4918-1.3662s0.49971-2.013-0.94945-3.1338c-1.2195-0.90886-2.3486-0.77774-3.1732-0.52612-0.82452 0.25162-1.5801 1.0085-1.9739 2.4476-0.41965 1.5339 0.22487 3.0424 0.22487 3.0424z" fill="#b4b4b4"/>
     <path d="m12.798 303.12s0.87449 0.30222 2.0488-0.32546c1.1743-0.62769 1.1243-1.1624 0.57467-1.8831-0.54968-0.72068-1.6241-1.6274-2.8983-1.7203-1.2743-0.093-1.3226 0.28441-1.3226 0.28441s0.31153 0.18927 0.90451 1.4519c0.59298 1.2626 0.69292 2.1925 0.69292 2.1925z" fill="#b4b4b4"/>
     <path d="m18.479 302.06s0.09138-1.4406-0.32128-2.1636c-0.08104-0.14197-0.29905-0.18022-0.55013-0.24453-0.87488-0.22409-1.1938 0.0582-1.1938 0.0582s-0.24282 0.15608-0.2678 0.51836c-0.02498 0.36229 0.37067 0.49263 0.37067 0.49263s-0.60803 0.0946-0.40814 0.53176c0.19988 0.43724 0.50783 0.51141 0.50783 0.51141l0.12851 0.0384" fill="#7f7f7f"/>
    </g>
    <ellipse cx="18.485" cy="302.13" rx=".41425" ry=".52066" fill="#7f7f7f" stroke-width=".26458" style="paint-order:markers fill stroke"/>
   </g>
   <path d="m8.2144 297.95 1.2367-0.0353s0.070672 0.33568-0.54769 0.37102c-0.61836 0.0353-0.68903-0.33569-0.68903-0.33569z"/>
   <path d="m9.9976 297.9 1.2367-0.0353s0.07067 0.33568-0.54769 0.37101c-0.61836 0.0353-0.68903-0.33568-0.68903-0.33568z"/>
  </g>
  <g fill="none" stroke="#000" stroke-width=".26458px">
   <path d="m9.0448 299.63v0.40634"/>
   <path d="m9.6125 299.63v0.40634"/>
   <path d="m10.18 299.64v0.40634"/>
   <path d="m10.748 299.66v0.40634"/>
   <path d="m7.1544 300.56s1.1837 1.431 2.5794 1.5017c1.3957 0.0707 1.7667-1.378 1.7667-1.378" opacity=".33"/>
   <path d="m6.7127 300.63s1.3427 1.8904 3.0741 1.855c1.7314-0.0353 2.1731-1.7137 2.1731-1.7137" opacity=".33"/>
   <path d="m2.3542 307.62 1.0244 0.1749"/>
   <path d="m5.4025 311.59 1.5991 0.39977"/>
   <path d="m11.599 311.21-1.2243 0.3248"/>
   <path d="m3.7534 313.76 2.6984 0.27484" opacity=".33"/>
   <path d="m10.475 313.64 2.8733-0.22486" opacity=".33"/>
  </g>
  <g stroke="#000">
   <path d="m4.3683 306.9 1.0117-0.0771-0.057447 1.7518-1.1029-4e-3z" fill="#815600" stroke-width=".26458px"/>
   <path d="m16.633 301.77s0.40996 0.12624 0.65074 0.17137c0.24078 0.0452 0.77343 0.10344 0.77343 0.10344" fill="none" stroke-width=".26458px"/>
   <ellipse cx="9.4335" cy="291.62" rx="1.1661" ry="1.166" fill="#d4d4d4" stroke-linecap="round" stroke-width=".26458" style="paint-order:markers fill stroke"/>
   <ellipse cx="22.613" cy="290.03" rx="1.1661" ry="1.166" fill="#d4d4d4" stroke-linecap="round" stroke-width=".26458" style="paint-order:markers fill stroke"/>
  </g>
  <g fill="none" stroke="#000" stroke-width=".26458px">
   <path d="m15.794 291.55 1.2014-0.17668" opacity=".33"/>
   <path d="m11.554 292.12 3.7102-0.49468" opacity=".33"/>
   <path d="m18.267 291.23 2.3498-0.22967" opacity=".33"/>
   <path d="m22.742 298.87-2.1987 0.4997" opacity=".33"/>
  </g>
  <ellipse transform="matrix(.92053 .39068 -.39069 .92052 0 0)" cx="132.58" cy="263.36" rx="1.6607" ry=".97169" fill="#fff" style="paint-order:markers fill stroke"/>
 </g>
</svg>
