<?xml version="1.0" encoding="UTF-8"?>
<svg width="32" height="32" version="1.1" viewBox="0 0 8.4667 8.4667" xmlns="http://www.w3.org/2000/svg">
 <g transform="translate(0 -288.53)">
  <g stroke-width=".26458" aria-label="?">
   <path d="m2.9987 290.62q0.1211-0.10685 0.26357-0.20302 0.14603-0.0962 0.31344-0.1674t0.3633-0.11042q0.1959-0.0427 0.42386-0.0427 0.30988 0 0.56277 0.0855 0.25645 0.0855 0.4381 0.24577 0.18165 0.15672 0.28138 0.38111 0.099731 0.22439 0.099731 0.50222 0 0.27069-0.07836 0.47015-0.07836 0.1959-0.1959 0.34194-0.11754 0.14603-0.26001 0.25289-0.13891 0.10685-0.26357 0.20302-0.12466 0.0926-0.21727 0.18521-0.089045 0.089-0.10685 0.20303l-0.081922 0.52002h-0.60195l-0.060551-0.58057q-0.021371-0.16741 0.046304-0.29207 0.071236-0.12823 0.18521-0.23152 0.11754-0.10685 0.26001-0.20302 0.14247-0.0997 0.26714-0.21371 0.12466-0.11754 0.20658-0.26001 0.085483-0.14604 0.085483-0.3455 0-0.12822-0.049865-0.22796-0.046304-0.10329-0.13179-0.17452-0.085483-0.0748-0.20658-0.11398-0.11754-0.0392-0.25645-0.0392-0.20302 0-0.3455 0.0463-0.13891 0.0427-0.23864 0.0997-0.096169 0.0534-0.16384 0.0997-0.067674 0.0427-0.1211 0.0427-0.12823 0-0.18521-0.10685zm0.67318 4.1994q0-0.11042 0.03918-0.21015 0.042742-0.0997 0.11398-0.17097 0.071236-0.0712 0.17097-0.11397 0.099731-0.0428 0.21371-0.0428 0.11398 0 0.21015 0.0428 0.099731 0.0427 0.17097 0.11397 0.074798 0.0712 0.11754 0.17097 0.042742 0.0997 0.042742 0.21015 0 0.11398-0.042742 0.21371-0.042742 0.0962-0.11754 0.1674-0.071236 0.0712-0.17097 0.11042-0.096169 0.0427-0.21015 0.0427-0.11398 0-0.21371-0.0427-0.099731-0.0392-0.17097-0.11042-0.071236-0.0712-0.11398-0.1674-0.03918-0.0997-0.03918-0.21371z" fill="#fff"/>
  </g>
  <circle cx="4.2429" cy="292.78" r="3.8086" fill="none" stroke="#fff" stroke-linecap="round" stroke-linejoin="round" stroke-width=".66146" style="paint-order:markers fill stroke"/>
 </g>
</svg>
